<svg width="75" height="75" viewBox="0 0 75 75" fill="none" xmlns="http://www.w3.org/2000/svg">
<path d="M37.5 0C30.0832 0 22.833 2.19934 16.6661 6.31989C10.4993 10.4404 5.69285 16.2971 2.85456 23.1494C0.0162756 30.0016 -0.726387 37.5416 0.720559 44.8159C2.16751 52.0902 5.73906 58.772 10.9835 64.0165C16.228 69.261 22.9099 72.8325 30.1842 74.2794C37.4584 75.7264 44.9984 74.9838 51.8507 72.1455C58.7029 69.3072 64.5596 64.5007 68.6802 58.3339C72.8007 52.167 75 44.9168 75 37.5C75 27.5544 71.0492 18.0161 64.0166 10.9835C56.9839 3.95088 47.4457 0 37.5 0" fill="white"/>
<path fill-rule="evenodd" clip-rule="evenodd" d="M21.5 37.5C21.5 28.6634 28.6634 21.5 37.5 21.5C46.3366 21.5 53.5 28.6634 53.5 37.5V53C53.5 53.2761 53.2761 53.5 53 53.5H37.5C28.6634 53.5 21.5 46.3366 21.5 37.5ZM37.5 56.5C27.0066 56.5 18.5 47.9934 18.5 37.5C18.5 27.0066 27.0066 18.5 37.5 18.5C47.9934 18.5 56.5 27.0066 56.5 37.5V53C56.5 54.933 54.933 56.5 53 56.5H37.5Z" fill="#0F263D"/>
<circle cx="31.5" cy="37.5" r="1.5" fill="#0F263D"/>
<circle cx="37.5" cy="37.5" r="1.5" fill="#0F263D"/>
<circle cx="43.5" cy="37.5" r="1.5" fill="#0F263D"/>
</svg>
