<svg xmlns="http://www.w3.org/2000/svg" width="50" height="50" viewBox="0 0 50 50"><path d="M25,3.453a25,25,0,1,1-25,25,25,25,0,0,1,25-25" transform="translate(0 -3.453)" fill="#fff"/><path d="M156.49,158.5l.02-.026c.029-.036.058-.073.085-.11l.013-.019c.029-.04.057-.08.084-.12l.014-.023c.026-.039.051-.079.075-.12l.016-.028c.023-.039.045-.078.066-.117l.016-.032c.02-.039.04-.077.058-.117l.014-.032c.018-.04.036-.08.053-.12l.011-.027c.017-.042.034-.085.049-.128l.006-.019c.016-.046.031-.092.045-.139l0-.008a3.438,3.438,0,0,0,.145-.956q0-.163-.012-.325a3.439,3.439,0,0,0-.275-1.095l0-.008c-.02-.046-.041-.091-.063-.136l-.007-.015c-.022-.044-.045-.087-.068-.13l-.009-.017c-.024-.043-.049-.086-.075-.128l-.009-.015q-.041-.066-.086-.13l-.006-.009a3.439,3.439,0,0,0-.426-.5l-.017-.017a10.869,10.869,0,0,0-2.377-1.824,5.094,5.094,0,0,0-.97-.4,3.745,3.745,0,0,0-3.846,1.091l-.005.005-1.228,1.22a18.42,18.42,0,0,1-3.3-2.439c-.046-.043-.093-.084-.138-.127s-.11-.108-.166-.162c-.092-.089-.184-.177-.274-.268l-.12-.12a18.412,18.412,0,0,1-3-3.874l1.22-1.228.005-.005a3.745,3.745,0,0,0,1.091-3.846,4.9,4.9,0,0,0-.3-.773,10.311,10.311,0,0,0-1.924-2.574l-.024-.024a3.438,3.438,0,0,0-.36-.32l0,0q-.064-.049-.131-.1l-.013-.009q-.062-.043-.126-.083l-.019-.012c-.041-.025-.082-.05-.124-.073l-.021-.011c-.041-.023-.083-.045-.126-.066l-.019-.009c-.044-.021-.087-.042-.132-.061l-.012-.005q-.07-.03-.141-.058h0a3.436,3.436,0,0,0-.947-.215q-.163-.014-.326-.012a3.44,3.44,0,0,0-.953.145l-.011,0c-.046.014-.091.029-.136.045l-.022.007c-.042.015-.084.031-.126.048l-.03.012-.118.052-.034.015c-.039.018-.077.038-.115.057l-.034.017c-.039.021-.078.043-.116.065l-.029.017c-.04.024-.079.049-.119.074l-.024.015c-.041.027-.08.055-.12.084l-.019.013c-.037.027-.074.056-.11.085l-.026.02-.063.054c-.022.019-.045.038-.067.057l-.026.023-.035.034a6.429,6.429,0,0,0-.66.775l-.019.025c-.051.07-.1.143-.146.216-.017.025-.035.05-.051.076-.041.064-.079.13-.118.2-.021.036-.044.071-.064.107-.034.061-.066.124-.1.186-.022.043-.046.084-.068.128-.029.059-.056.12-.084.179s-.046.1-.067.145-.048.117-.071.176-.044.105-.064.159-.04.115-.061.173-.041.113-.059.171-.034.115-.051.172-.037.121-.053.182-.028.116-.042.173-.032.126-.046.19-.023.117-.034.175-.027.131-.038.2-.018.118-.026.177-.021.136-.03.2-.013.121-.019.182-.015.138-.021.208-.008.125-.012.188-.009.14-.012.211,0,.129,0,.194,0,.124,0,.187v.051c0,.106,0,.214.007.322,0,.078.007.157.012.236,0,.02,0,.04,0,.06.226,3.583,2.236,7.578,5.47,10.812h0c3.234,3.234,7.229,5.245,10.813,5.47l.052,0c.081,0,.162.009.243.012.107,0,.214.007.321.007h.051c.061,0,.121,0,.182,0s.133,0,.2,0,.137-.008.206-.012.129-.007.192-.012.136-.013.2-.02.125-.012.187-.019.133-.019.2-.029.122-.017.182-.027.129-.024.194-.037.12-.022.179-.035.125-.03.187-.045.119-.028.177-.043.119-.034.178-.052.118-.034.176-.052.112-.039.168-.058.119-.04.177-.062.1-.042.155-.063.12-.047.179-.073.094-.044.141-.066.123-.056.183-.086c.042-.021.083-.044.125-.066.063-.033.127-.066.189-.1.035-.02.068-.041.1-.061.067-.04.135-.079.2-.121l.069-.047c.075-.049.15-.1.222-.15l.018-.014a6.438,6.438,0,0,0,.781-.665l.034-.035.023-.026c.02-.022.039-.045.058-.068s.036-.041.053-.063m-2.279-.44c-.06.038-.123.073-.185.108l-.041.024c-.057.031-.115.06-.174.09l-.062.032c-.054.026-.109.05-.164.074l-.08.036c-.051.021-.1.041-.155.061l-.1.038c-.048.018-.1.033-.147.05l-.114.038c-.046.014-.094.027-.141.04s-.085.025-.129.036-.09.021-.135.031-.095.023-.143.033l-.129.024c-.052.01-.1.02-.156.028l-.127.018c-.055.008-.11.016-.166.023l-.125.012c-.058.006-.116.012-.174.017l-.126.007c-.06,0-.12.008-.181.01l-.128,0c-.067,0-.134,0-.2,0-.089,0-.178,0-.268-.006a12.106,12.106,0,0,1-4.217-1.055.91.91,0,0,0-.224-.063,17.526,17.526,0,0,1-3.354-2.011.914.914,0,0,0-.091-.084,20.348,20.348,0,0,1-2-1.74h0a20.346,20.346,0,0,1-1.739-2,.9.9,0,0,0-.084-.091,17.529,17.529,0,0,1-2.012-3.354.907.907,0,0,0-.063-.224,12.109,12.109,0,0,1-1.055-4.216c0-.09-.006-.179-.006-.268,0-.07,0-.138,0-.207,0-.041,0-.082,0-.122,0-.063.006-.124.01-.186,0-.04,0-.08.007-.12,0-.06.011-.12.017-.18,0-.04.007-.08.012-.12.007-.057.015-.114.024-.17.006-.041.011-.082.017-.123s.019-.106.029-.159.015-.084.023-.126.023-.1.034-.147.02-.088.031-.13.025-.088.037-.132.025-.092.039-.138.026-.077.039-.116.032-.1.049-.145.026-.067.039-.1c.02-.051.039-.1.06-.152.012-.028.025-.056.038-.084.024-.054.047-.108.073-.16.01-.022.022-.043.033-.064.029-.058.058-.115.089-.171l.025-.042c.035-.062.07-.124.108-.184l.013-.02a4.614,4.614,0,0,1,.625-.789l.007-.006a1.635,1.635,0,0,1,2.277.082c1.47,1.525,1.955,2.547,1.859,3.359a2.263,2.263,0,0,1-.716,1.3l-1.685,1.7a.909.909,0,0,0-.185,1.01,14.272,14.272,0,0,0,1.341,2.232A21.456,21.456,0,0,0,142.5,152.1l.12.12a18.365,18.365,0,0,0,4.959,3.654.909.909,0,0,0,1.01-.185l1.7-1.685a2.262,2.262,0,0,1,1.3-.716c.812-.1,1.834.388,3.359,1.858a1.635,1.635,0,0,1,.082,2.277l-.006.007a4.615,4.615,0,0,1-.793.627l-.016.01" transform="translate(-120.652 -124.107)" fill="#0f263d"/></svg>