<svg xmlns="http://www.w3.org/2000/svg" width="50" height="50" viewBox="0 0 50 50"><g transform="translate(-300 -661)"><path d="M707.4,3.623a25,25,0,1,0,25,25,25,25,0,0,0-25-25" transform="translate(-382.4 657.377)" fill="#fff"/><g transform="translate(311.184 668.36)"><g transform="translate(0 3.867)"><path d="M10.974,31.818a.9.9,0,0,1-.643-1.534l15.03-15.272a5.143,5.143,0,0,0,.018-7.183L24.7,7.142a4.874,4.874,0,0,0-3.5-1.471,4.924,4.924,0,0,0-3.531,1.49L2.735,22.175a3.276,3.276,0,0,0-.009,4.574l.468.476a3.39,3.39,0,0,0,2.4,1,3.027,3.027,0,0,0,2.182-.887L21.191,13.71a1.329,1.329,0,0,0,.006-1.855l-.25-.254a1.236,1.236,0,0,0-.887-.373,1.254,1.254,0,0,0-.9.38L6.767,24.2a.9.9,0,0,1-1.286-1.265l12.4-12.595a3.049,3.049,0,0,1,4.356-.007l.25.254a3.14,3.14,0,0,1-.006,4.386L9.066,28.6A4.817,4.817,0,0,1,5.6,30.026a5.2,5.2,0,0,1-3.69-1.536l-.468-.476a5.089,5.089,0,0,1,.012-7.108L16.392,5.892a6.715,6.715,0,0,1,9.6-.015l.677.688a6.955,6.955,0,0,1-.018,9.713L11.616,31.549A.9.9,0,0,1,10.974,31.818Z" transform="translate(0 -3.867)" fill="#0f263d"/></g></g></g></svg>