<svg xmlns="http://www.w3.org/2000/svg" width="50" height="50" viewBox="0 0 50 50"><g transform="translate(-1037 20009)"><path d="M707.4,3.623a25,25,0,1,0,25,25,25,25,0,0,0-25-25" transform="translate(354.6 -20012.623)" fill="#fff"/><path d="M4.5,22.412a2.022,2.022,0,0,0,.884.2H25.694a2.023,2.023,0,0,0,.885-.2l-8-7.529L15.97,17.031a.677.677,0,0,1-.861,0L12.5,14.883l-8,7.529Zm-.953-.962.019-.019,7.88-7.416L3.6,7.553q-.026-.021-.049-.044a2.023,2.023,0,0,0-.2.876v12.2a2.023,2.023,0,0,0,.194.867Zm23.983,0a2.022,2.022,0,0,0,.194-.867V8.385a2.023,2.023,0,0,0-.2-.876q-.023.023-.049.044l-7.846,6.462,7.88,7.416.019.019Zm-.965-14.9a2.022,2.022,0,0,0-.872-.2H5.385a2.023,2.023,0,0,0-.873.2l11.027,9.081L26.566,6.55ZM5.385,5H25.694a3.385,3.385,0,0,1,3.385,3.385v12.2a3.385,3.385,0,0,1-3.385,3.385H5.385A3.385,3.385,0,0,1,2,20.583V8.385A3.385,3.385,0,0,1,5.385,5Z" transform="translate(1046 -19998)" fill="#0f263d"/></g></svg>