<svg xmlns="http://www.w3.org/2000/svg" xmlns:xlink="http://www.w3.org/1999/xlink" width="50" height="50" viewBox="0 0 50 50"><defs><clipPath id="a"><rect width="50" height="50" fill="none"/></clipPath><clipPath id="b"><rect width="19.995" height="28.437" fill="none"/></clipPath><clipPath id="c"><rect width="9.998" height="9.998" fill="none"/></clipPath></defs><g transform="translate(-10834.255 -2383.001)"><path d="M1414.255,0a25,25,0,1,0,25,25,25,25,0,0,0-25-25" transform="translate(9445 2383.001)" fill="#fff"/><g transform="translate(10834.255 2383.001)" opacity="0"><g transform="translate(0)"><g clip-path="url(#a)"><path d="M1414.255,0a25,25,0,1,0,25,25,25,25,0,0,0-25-25" transform="translate(-1389.255)" fill="#fff"/></g></g></g><path d="M1549.257,136.252l-7.937-12.789a10,10,0,1,1,17.093-.135l-7.734,12.913a.834.834,0,0,1-.709.4h-.006a.831.831,0,0,1-.708-.394m-7.762-18.046a8.311,8.311,0,0,0,1.242,4.379q.722,1.164,7.216,11.627l7.031-11.74a8.332,8.332,0,1,0-15.489-4.266" transform="translate(9309.43 2285.574)" fill="#0f263d"/><g transform="translate(10849.258 2393.782)" opacity="0"><g transform="translate(0 0)"><g clip-path="url(#b)"><path d="M1549.257,136.252l-7.937-12.789a10,10,0,1,1,17.093-.135l-7.734,12.913a.834.834,0,0,1-.709.4h-.006a.831.831,0,0,1-.708-.394m-7.762-18.046a8.311,8.311,0,0,0,1.242,4.379q.722,1.164,7.216,11.627l7.031-11.74a8.332,8.332,0,1,0-15.489-4.266" transform="translate(-1539.828 -108.208)" fill="#0f263d"/></g></g></g><path d="M1590.738,166a5,5,0,1,1,4.256,2.373,4.986,4.986,0,0,1-4.256-2.373m.923-2.625a3.333,3.333,0,1,0,3.333-3.333,3.315,3.315,0,0,0-3.333,3.333" transform="translate(9264.261 2240.406)" fill="#0f263d"/><g transform="translate(10854.257 2398.781)" opacity="0"><g transform="translate(0 0)"><g clip-path="url(#c)"><path d="M1590.738,166a5,5,0,1,1,4.256,2.373,4.986,4.986,0,0,1-4.256-2.373m.923-2.625a3.333,3.333,0,1,0,3.333-3.333,3.315,3.315,0,0,0-3.333,3.333" transform="translate(-1589.995 -158.375)" fill="#0f263d"/></g></g></g></g></svg>