<svg xmlns="http://www.w3.org/2000/svg" xmlns:xlink="http://www.w3.org/1999/xlink" width="500" height="1080" viewBox="0 0 500 1080"><defs><clipPath id="a"><rect width="500" height="1080" transform="translate(16527 1180)" fill="#85fa00"/></clipPath></defs><g transform="translate(-16527 -1180)"><rect width="500" height="1080" transform="translate(16527 1180)" fill="#00fafa"/><g clip-path="url(#a)"><g transform="translate(1271)"><path d="M140.5-25h-14V-3.75a3.45,3.45,0,0,1-1.25,2.25A3.45,3.45,0,0,1,123-.25H85.5A3.45,3.45,0,0,1,83.25-1.5,3.45,3.45,0,0,1,82-3.75V-25H4.25V-59.5L75.75-150H127v87h13.5a3.45,3.45,0,0,1,2.25,1.25A3.45,3.45,0,0,1,144-59.5v31a3.45,3.45,0,0,1-1.25,2.25A3.45,3.45,0,0,1,140.5-25ZM60-63H83V-88l.75-13.5-1-.25Q78-93.5,76-91.25L58-68.5,51.5-63l.25.5Q59.25-63,60-63Zm98.75-12v.5q0-34.75,18.5-56.25t49.5-21.5q31.25,0,49.5,21.25,18.5,21.5,18.5,56.25T276.25-18.5q-18,21-49.5,21-31.25,0-49.5-21.25Q158.75-40.25,158.75-75Zm45,.5v.5q0,18.25,6,28.75T227-34.75q11.25,0,17.25-10.5t6-29q0-18.5-6-29T227-113.75q-11.25,0-17.25,10.5T203.75-74.5ZM378-58.5H349.25A3.45,3.45,0,0,1,347-59.75,3.45,3.45,0,0,1,345.75-62V-88.25A3.45,3.45,0,0,1,347-90.5a3.45,3.45,0,0,1,2.25-1.25H372q17.75,0,17.75-12.75a10.318,10.318,0,0,0-4.75-9q-5-3.5-12.75-3.5-15.5,0-17.5,13.25-.25,4-3.75,4H314.25a4.091,4.091,0,0,1-3-1.25,3.823,3.823,0,0,1-1.25-2.75q0-20.25,16.25-34.5t45.5-14.25q32.25,0,47.75,13.5T435-107.5q0,17.5-13.5,26.25v.75Q440-70.25,440-47.5q0,21.5-17.5,35.75-17.25,14-51,14-31.25,0-48.25-14Q306-26,306-46q0-4.25,4.5-4.25H347q3.5,0,3.75,3.75,1.5,13.5,21.5,13.5,10,0,16.25-4.25,6-4.25,6-10.25Q394.5-58.5,378-58.5Z" transform="translate(15283.75 1246.5)" fill="#0f263d"/><path d="M140.5-25h-14V-3.75a3.45,3.45,0,0,1-1.25,2.25A3.45,3.45,0,0,1,123-.25H85.5A3.45,3.45,0,0,1,83.25-1.5,3.45,3.45,0,0,1,82-3.75V-25H4.25V-59.5L75.75-150H127v87h13.5a3.45,3.45,0,0,1,2.25,1.25A3.45,3.45,0,0,1,144-59.5v31a3.45,3.45,0,0,1-1.25,2.25A3.45,3.45,0,0,1,140.5-25ZM60-63H83V-88l.75-13.5-1-.25Q78-93.5,76-91.25L58-68.5,51.5-63l.25.5Q59.25-63,60-63Zm98.75-12v.5q0-34.75,18.5-56.25t49.5-21.5q31.25,0,49.5,21.25,18.5,21.5,18.5,56.25T276.25-18.5q-18,21-49.5,21-31.25,0-49.5-21.25Q158.75-40.25,158.75-75Zm45,.5v.5q0,18.25,6,28.75T227-34.75q11.25,0,17.25-10.5t6-29q0-18.5-6-29T227-113.75q-11.25,0-17.25,10.5T203.75-74.5ZM378-58.5H349.25A3.45,3.45,0,0,1,347-59.75,3.45,3.45,0,0,1,345.75-62V-88.25A3.45,3.45,0,0,1,347-90.5a3.45,3.45,0,0,1,2.25-1.25H372q17.75,0,17.75-12.75a10.318,10.318,0,0,0-4.75-9q-5-3.5-12.75-3.5-15.5,0-17.5,13.25-.25,4-3.75,4H314.25a4.091,4.091,0,0,1-3-1.25,3.823,3.823,0,0,1-1.25-2.75q0-20.25,16.25-34.5t45.5-14.25q32.25,0,47.75,13.5T435-107.5q0,17.5-13.5,26.25v.75Q440-70.25,440-47.5q0,21.5-17.5,35.75-17.25,14-51,14-31.25,0-48.25-14Q306-26,306-46q0-4.25,4.5-4.25H347q3.5,0,3.75,3.75,1.5,13.5,21.5,13.5,10,0,16.25-4.25,6-4.25,6-10.25Q394.5-58.5,378-58.5Z" transform="translate(15283.75 1465.5)" fill="#0f263d"/><path d="M140.5-25h-14V-3.75a3.45,3.45,0,0,1-1.25,2.25A3.45,3.45,0,0,1,123-.25H85.5A3.45,3.45,0,0,1,83.25-1.5,3.45,3.45,0,0,1,82-3.75V-25H4.25V-59.5L75.75-150H127v87h13.5a3.45,3.45,0,0,1,2.25,1.25A3.45,3.45,0,0,1,144-59.5v31a3.45,3.45,0,0,1-1.25,2.25A3.45,3.45,0,0,1,140.5-25ZM60-63H83V-88l.75-13.5-1-.25Q78-93.5,76-91.25L58-68.5,51.5-63l.25.5Q59.25-63,60-63Zm98.75-12v.5q0-34.75,18.5-56.25t49.5-21.5q31.25,0,49.5,21.25,18.5,21.5,18.5,56.25T276.25-18.5q-18,21-49.5,21-31.25,0-49.5-21.25Q158.75-40.25,158.75-75Zm45,.5v.5q0,18.25,6,28.75T227-34.75q11.25,0,17.25-10.5t6-29q0-18.5-6-29T227-113.75q-11.25,0-17.25,10.5T203.75-74.5ZM378-58.5H349.25A3.45,3.45,0,0,1,347-59.75,3.45,3.45,0,0,1,345.75-62V-88.25A3.45,3.45,0,0,1,347-90.5a3.45,3.45,0,0,1,2.25-1.25H372q17.75,0,17.75-12.75a10.318,10.318,0,0,0-4.75-9q-5-3.5-12.75-3.5-15.5,0-17.5,13.25-.25,4-3.75,4H314.25a4.091,4.091,0,0,1-3-1.25,3.823,3.823,0,0,1-1.25-2.75q0-20.25,16.25-34.5t45.5-14.25q32.25,0,47.75,13.5T435-107.5q0,17.5-13.5,26.25v.75Q440-70.25,440-47.5q0,21.5-17.5,35.75-17.25,14-51,14-31.25,0-48.25-14Q306-26,306-46q0-4.25,4.5-4.25H347q3.5,0,3.75,3.75,1.5,13.5,21.5,13.5,10,0,16.25-4.25,6-4.25,6-10.25Q394.5-58.5,378-58.5Z" transform="translate(15283.75 1685.5)" fill="#0f263d"/><path d="M140.5-25h-14V-3.75a3.45,3.45,0,0,1-1.25,2.25A3.45,3.45,0,0,1,123-.25H85.5A3.45,3.45,0,0,1,83.25-1.5,3.45,3.45,0,0,1,82-3.75V-25H4.25V-59.5L75.75-150H127v87h13.5a3.45,3.45,0,0,1,2.25,1.25A3.45,3.45,0,0,1,144-59.5v31a3.45,3.45,0,0,1-1.25,2.25A3.45,3.45,0,0,1,140.5-25ZM60-63H83V-88l.75-13.5-1-.25Q78-93.5,76-91.25L58-68.5,51.5-63l.25.5Q59.25-63,60-63Zm98.75-12v.5q0-34.75,18.5-56.25t49.5-21.5q31.25,0,49.5,21.25,18.5,21.5,18.5,56.25T276.25-18.5q-18,21-49.5,21-31.25,0-49.5-21.25Q158.75-40.25,158.75-75Zm45,.5v.5q0,18.25,6,28.75T227-34.75q11.25,0,17.25-10.5t6-29q0-18.5-6-29T227-113.75q-11.25,0-17.25,10.5T203.75-74.5ZM378-58.5H349.25A3.45,3.45,0,0,1,347-59.75,3.45,3.45,0,0,1,345.75-62V-88.25A3.45,3.45,0,0,1,347-90.5a3.45,3.45,0,0,1,2.25-1.25H372q17.75,0,17.75-12.75a10.318,10.318,0,0,0-4.75-9q-5-3.5-12.75-3.5-15.5,0-17.5,13.25-.25,4-3.75,4H314.25a4.091,4.091,0,0,1-3-1.25,3.823,3.823,0,0,1-1.25-2.75q0-20.25,16.25-34.5t45.5-14.25q32.25,0,47.75,13.5T435-107.5q0,17.5-13.5,26.25v.75Q440-70.25,440-47.5q0,21.5-17.5,35.75-17.25,14-51,14-31.25,0-48.25-14Q306-26,306-46q0-4.25,4.5-4.25H347q3.5,0,3.75,3.75,1.5,13.5,21.5,13.5,10,0,16.25-4.25,6-4.25,6-10.25Q394.5-58.5,378-58.5Z" transform="translate(15283.75 1904.5)" fill="#0f263d"/><path d="M140.5-25h-14V-3.75a3.45,3.45,0,0,1-1.25,2.25A3.45,3.45,0,0,1,123-.25H85.5A3.45,3.45,0,0,1,83.25-1.5,3.45,3.45,0,0,1,82-3.75V-25H4.25V-59.5L75.75-150H127v87h13.5a3.45,3.45,0,0,1,2.25,1.25A3.45,3.45,0,0,1,144-59.5v31a3.45,3.45,0,0,1-1.25,2.25A3.45,3.45,0,0,1,140.5-25ZM60-63H83V-88l.75-13.5-1-.25Q78-93.5,76-91.25L58-68.5,51.5-63l.25.5Q59.25-63,60-63Zm98.75-12v.5q0-34.75,18.5-56.25t49.5-21.5q31.25,0,49.5,21.25,18.5,21.5,18.5,56.25T276.25-18.5q-18,21-49.5,21-31.25,0-49.5-21.25Q158.75-40.25,158.75-75Zm45,.5v.5q0,18.25,6,28.75T227-34.75q11.25,0,17.25-10.5t6-29q0-18.5-6-29T227-113.75q-11.25,0-17.25,10.5T203.75-74.5ZM378-58.5H349.25A3.45,3.45,0,0,1,347-59.75,3.45,3.45,0,0,1,345.75-62V-88.25A3.45,3.45,0,0,1,347-90.5a3.45,3.45,0,0,1,2.25-1.25H372q17.75,0,17.75-12.75a10.318,10.318,0,0,0-4.75-9q-5-3.5-12.75-3.5-15.5,0-17.5,13.25-.25,4-3.75,4H314.25a4.091,4.091,0,0,1-3-1.25,3.823,3.823,0,0,1-1.25-2.75q0-20.25,16.25-34.5t45.5-14.25q32.25,0,47.75,13.5T435-107.5q0,17.5-13.5,26.25v.75Q440-70.25,440-47.5q0,21.5-17.5,35.75-17.25,14-51,14-31.25,0-48.25-14Q306-26,306-46q0-4.25,4.5-4.25H347q3.5,0,3.75,3.75,1.5,13.5,21.5,13.5,10,0,16.25-4.25,6-4.25,6-10.25Q394.5-58.5,378-58.5Z" transform="translate(15283.75 2124.5)" fill="#0f263d"/><path d="M140.5-25h-14V-3.75a3.45,3.45,0,0,1-1.25,2.25A3.45,3.45,0,0,1,123-.25H85.5A3.45,3.45,0,0,1,83.25-1.5,3.45,3.45,0,0,1,82-3.75V-25H4.25V-59.5L75.75-150H127v87h13.5a3.45,3.45,0,0,1,2.25,1.25A3.45,3.45,0,0,1,144-59.5v31a3.45,3.45,0,0,1-1.25,2.25A3.45,3.45,0,0,1,140.5-25ZM60-63H83V-88l.75-13.5-1-.25Q78-93.5,76-91.25L58-68.5,51.5-63l.25.5Q59.25-63,60-63Zm98.75-12v.5q0-34.75,18.5-56.25t49.5-21.5q31.25,0,49.5,21.25,18.5,21.5,18.5,56.25T276.25-18.5q-18,21-49.5,21-31.25,0-49.5-21.25Q158.75-40.25,158.75-75Zm45,.5v.5q0,18.25,6,28.75T227-34.75q11.25,0,17.25-10.5t6-29q0-18.5-6-29T227-113.75q-11.25,0-17.25,10.5T203.75-74.5ZM378-58.5H349.25A3.45,3.45,0,0,1,347-59.75,3.45,3.45,0,0,1,345.75-62V-88.25A3.45,3.45,0,0,1,347-90.5a3.45,3.45,0,0,1,2.25-1.25H372q17.75,0,17.75-12.75a10.318,10.318,0,0,0-4.75-9q-5-3.5-12.75-3.5-15.5,0-17.5,13.25-.25,4-3.75,4H314.25a4.091,4.091,0,0,1-3-1.25,3.823,3.823,0,0,1-1.25-2.75q0-20.25,16.25-34.5t45.5-14.25q32.25,0,47.75,13.5T435-107.5q0,17.5-13.5,26.25v.75Q440-70.25,440-47.5q0,21.5-17.5,35.75-17.25,14-51,14-31.25,0-48.25-14Q306-26,306-46q0-4.25,4.5-4.25H347q3.5,0,3.75,3.75,1.5,13.5,21.5,13.5,10,0,16.25-4.25,6-4.25,6-10.25Q394.5-58.5,378-58.5Z" transform="translate(15283.75 2343.5)" fill="#0f263d"/></g></g></g></svg>