<svg xmlns="http://www.w3.org/2000/svg" xmlns:xlink="http://www.w3.org/1999/xlink" width="500" height="1080" viewBox="0 0 500 1080"><defs><clipPath id="a"><rect width="500" height="1080" transform="translate(13931 1182)" fill="#85fa00"/></clipPath></defs><g transform="translate(-1420 -2)"><rect width="500" height="1080" transform="translate(1420 2)" fill="#00fafa"/><g transform="translate(-12511 -1180)" clip-path="url(#a)"><g transform="translate(12511.75 1180.25)"><path d="M140.5-25h-14V-3.75a3.45,3.45,0,0,1-1.25,2.25A3.45,3.45,0,0,1,123-.25H85.5A3.45,3.45,0,0,1,83.25-1.5,3.45,3.45,0,0,1,82-3.75V-25H4.25V-59.5L75.75-150H127v87h13.5a3.45,3.45,0,0,1,2.25,1.25A3.45,3.45,0,0,1,144-59.5v31a3.45,3.45,0,0,1-1.25,2.25A3.45,3.45,0,0,1,140.5-25ZM60-63H83V-88l.75-13.5-1-.25Q78-93.5,76-91.25L58-68.5,51.5-63l.25.5Q59.25-63,60-63Zm98.75-12v.5q0-34.75,18.5-56.25t49.5-21.5q31.25,0,49.5,21.25,18.5,21.5,18.5,56.25T276.25-18.5q-18,21-49.5,21-31.25,0-49.5-21.25Q158.75-40.25,158.75-75Zm45,.5v.5q0,18.25,6,28.75T227-34.75q11.25,0,17.25-10.5t6-29q0-18.5-6-29T227-113.75q-11.25,0-17.25,10.5T203.75-74.5ZM443-25H429V-3.75a3.45,3.45,0,0,1-1.25,2.25A3.45,3.45,0,0,1,425.5-.25H388a3.45,3.45,0,0,1-2.25-1.25,3.45,3.45,0,0,1-1.25-2.25V-25H306.75V-59.5l71.5-90.5H429.5v87H443a3.45,3.45,0,0,1,2.25,1.25,3.45,3.45,0,0,1,1.25,2.25v31a3.45,3.45,0,0,1-1.25,2.25A3.45,3.45,0,0,1,443-25ZM362.5-63h23V-88l.75-13.5-1-.25q-4.75,8.25-6.75,10.5l-18,22.75L354-63l.25.5Q361.75-63,362.5-63Z" transform="translate(1444 68)" fill="#0f263d"/><path d="M140.5-25h-14V-3.75a3.45,3.45,0,0,1-1.25,2.25A3.45,3.45,0,0,1,123-.25H85.5A3.45,3.45,0,0,1,83.25-1.5,3.45,3.45,0,0,1,82-3.75V-25H4.25V-59.5L75.75-150H127v87h13.5a3.45,3.45,0,0,1,2.25,1.25A3.45,3.45,0,0,1,144-59.5v31a3.45,3.45,0,0,1-1.25,2.25A3.45,3.45,0,0,1,140.5-25ZM60-63H83V-88l.75-13.5-1-.25Q78-93.5,76-91.25L58-68.5,51.5-63l.25.5Q59.25-63,60-63Zm98.75-12v.5q0-34.75,18.5-56.25t49.5-21.5q31.25,0,49.5,21.25,18.5,21.5,18.5,56.25T276.25-18.5q-18,21-49.5,21-31.25,0-49.5-21.25Q158.75-40.25,158.75-75Zm45,.5v.5q0,18.25,6,28.75T227-34.75q11.25,0,17.25-10.5t6-29q0-18.5-6-29T227-113.75q-11.25,0-17.25,10.5T203.75-74.5ZM443-25H429V-3.75a3.45,3.45,0,0,1-1.25,2.25A3.45,3.45,0,0,1,425.5-.25H388a3.45,3.45,0,0,1-2.25-1.25,3.45,3.45,0,0,1-1.25-2.25V-25H306.75V-59.5l71.5-90.5H429.5v87H443a3.45,3.45,0,0,1,2.25,1.25,3.45,3.45,0,0,1,1.25,2.25v31a3.45,3.45,0,0,1-1.25,2.25A3.45,3.45,0,0,1,443-25ZM362.5-63h23V-88l.75-13.5-1-.25q-4.75,8.25-6.75,10.5l-18,22.75L354-63l.25.5Q361.75-63,362.5-63Z" transform="translate(1444 507)" fill="#0f263d"/><path d="M140.5-25h-14V-3.75a3.45,3.45,0,0,1-1.25,2.25A3.45,3.45,0,0,1,123-.25H85.5A3.45,3.45,0,0,1,83.25-1.5,3.45,3.45,0,0,1,82-3.75V-25H4.25V-59.5L75.75-150H127v87h13.5a3.45,3.45,0,0,1,2.25,1.25A3.45,3.45,0,0,1,144-59.5v31a3.45,3.45,0,0,1-1.25,2.25A3.45,3.45,0,0,1,140.5-25ZM60-63H83V-88l.75-13.5-1-.25Q78-93.5,76-91.25L58-68.5,51.5-63l.25.5Q59.25-63,60-63Zm98.75-12v.5q0-34.75,18.5-56.25t49.5-21.5q31.25,0,49.5,21.25,18.5,21.5,18.5,56.25T276.25-18.5q-18,21-49.5,21-31.25,0-49.5-21.25Q158.75-40.25,158.75-75Zm45,.5v.5q0,18.25,6,28.75T227-34.75q11.25,0,17.25-10.5t6-29q0-18.5-6-29T227-113.75q-11.25,0-17.25,10.5T203.75-74.5ZM443-25H429V-3.75a3.45,3.45,0,0,1-1.25,2.25A3.45,3.45,0,0,1,425.5-.25H388a3.45,3.45,0,0,1-2.25-1.25,3.45,3.45,0,0,1-1.25-2.25V-25H306.75V-59.5l71.5-90.5H429.5v87H443a3.45,3.45,0,0,1,2.25,1.25,3.45,3.45,0,0,1,1.25,2.25v31a3.45,3.45,0,0,1-1.25,2.25A3.45,3.45,0,0,1,443-25ZM362.5-63h23V-88l.75-13.5-1-.25q-4.75,8.25-6.75,10.5l-18,22.75L354-63l.25.5Q361.75-63,362.5-63Z" transform="translate(1444 946)" fill="#0f263d"/><path d="M140.5-25h-14V-3.75a3.45,3.45,0,0,1-1.25,2.25A3.45,3.45,0,0,1,123-.25H85.5A3.45,3.45,0,0,1,83.25-1.5,3.45,3.45,0,0,1,82-3.75V-25H4.25V-59.5L75.75-150H127v87h13.5a3.45,3.45,0,0,1,2.25,1.25A3.45,3.45,0,0,1,144-59.5v31a3.45,3.45,0,0,1-1.25,2.25A3.45,3.45,0,0,1,140.5-25ZM60-63H83V-88l.75-13.5-1-.25Q78-93.5,76-91.25L58-68.5,51.5-63l.25.5Q59.25-63,60-63Zm98.75-12v.5q0-34.75,18.5-56.25t49.5-21.5q31.25,0,49.5,21.25,18.5,21.5,18.5,56.25T276.25-18.5q-18,21-49.5,21-31.25,0-49.5-21.25Q158.75-40.25,158.75-75Zm45,.5v.5q0,18.25,6,28.75T227-34.75q11.25,0,17.25-10.5t6-29q0-18.5-6-29T227-113.75q-11.25,0-17.25,10.5T203.75-74.5ZM443-25H429V-3.75a3.45,3.45,0,0,1-1.25,2.25A3.45,3.45,0,0,1,425.5-.25H388a3.45,3.45,0,0,1-2.25-1.25,3.45,3.45,0,0,1-1.25-2.25V-25H306.75V-59.5l71.5-90.5H429.5v87H443a3.45,3.45,0,0,1,2.25,1.25,3.45,3.45,0,0,1,1.25,2.25v31a3.45,3.45,0,0,1-1.25,2.25A3.45,3.45,0,0,1,443-25ZM362.5-63h23V-88l.75-13.5-1-.25q-4.75,8.25-6.75,10.5l-18,22.75L354-63l.25.5Q361.75-63,362.5-63Z" transform="translate(1444 287)" fill="#0f263d"/><path d="M140.5-25h-14V-3.75a3.45,3.45,0,0,1-1.25,2.25A3.45,3.45,0,0,1,123-.25H85.5A3.45,3.45,0,0,1,83.25-1.5,3.45,3.45,0,0,1,82-3.75V-25H4.25V-59.5L75.75-150H127v87h13.5a3.45,3.45,0,0,1,2.25,1.25A3.45,3.45,0,0,1,144-59.5v31a3.45,3.45,0,0,1-1.25,2.25A3.45,3.45,0,0,1,140.5-25ZM60-63H83V-88l.75-13.5-1-.25Q78-93.5,76-91.25L58-68.5,51.5-63l.25.5Q59.25-63,60-63Zm98.75-12v.5q0-34.75,18.5-56.25t49.5-21.5q31.25,0,49.5,21.25,18.5,21.5,18.5,56.25T276.25-18.5q-18,21-49.5,21-31.25,0-49.5-21.25Q158.75-40.25,158.75-75Zm45,.5v.5q0,18.25,6,28.75T227-34.75q11.25,0,17.25-10.5t6-29q0-18.5-6-29T227-113.75q-11.25,0-17.25,10.5T203.75-74.5ZM443-25H429V-3.75a3.45,3.45,0,0,1-1.25,2.25A3.45,3.45,0,0,1,425.5-.25H388a3.45,3.45,0,0,1-2.25-1.25,3.45,3.45,0,0,1-1.25-2.25V-25H306.75V-59.5l71.5-90.5H429.5v87H443a3.45,3.45,0,0,1,2.25,1.25,3.45,3.45,0,0,1,1.25,2.25v31a3.45,3.45,0,0,1-1.25,2.25A3.45,3.45,0,0,1,443-25ZM362.5-63h23V-88l.75-13.5-1-.25q-4.75,8.25-6.75,10.5l-18,22.75L354-63l.25.5Q361.75-63,362.5-63Z" transform="translate(1444 726)" fill="#0f263d"/><path d="M140.5-25h-14V-3.75a3.45,3.45,0,0,1-1.25,2.25A3.45,3.45,0,0,1,123-.25H85.5A3.45,3.45,0,0,1,83.25-1.5,3.45,3.45,0,0,1,82-3.75V-25H4.25V-59.5L75.75-150H127v87h13.5a3.45,3.45,0,0,1,2.25,1.25A3.45,3.45,0,0,1,144-59.5v31a3.45,3.45,0,0,1-1.25,2.25A3.45,3.45,0,0,1,140.5-25ZM60-63H83V-88l.75-13.5-1-.25Q78-93.5,76-91.25L58-68.5,51.5-63l.25.5Q59.25-63,60-63Zm98.75-12v.5q0-34.75,18.5-56.25t49.5-21.5q31.25,0,49.5,21.25,18.5,21.5,18.5,56.25T276.25-18.5q-18,21-49.5,21-31.25,0-49.5-21.25Q158.75-40.25,158.75-75Zm45,.5v.5q0,18.25,6,28.75T227-34.75q11.25,0,17.25-10.5t6-29q0-18.5-6-29T227-113.75q-11.25,0-17.25,10.5T203.75-74.5ZM443-25H429V-3.75a3.45,3.45,0,0,1-1.25,2.25A3.45,3.45,0,0,1,425.5-.25H388a3.45,3.45,0,0,1-2.25-1.25,3.45,3.45,0,0,1-1.25-2.25V-25H306.75V-59.5l71.5-90.5H429.5v87H443a3.45,3.45,0,0,1,2.25,1.25,3.45,3.45,0,0,1,1.25,2.25v31a3.45,3.45,0,0,1-1.25,2.25A3.45,3.45,0,0,1,443-25ZM362.5-63h23V-88l.75-13.5-1-.25q-4.75,8.25-6.75,10.5l-18,22.75L354-63l.25.5Q361.75-63,362.5-63Z" transform="translate(1444 1165)" fill="#0f263d"/></g></g></g></svg>