<svg xmlns="http://www.w3.org/2000/svg" xmlns:xlink="http://www.w3.org/1999/xlink" width="280.921" height="293.522" viewBox="0 0 280.921 293.522"><defs><clipPath id="a"><rect width="241.179" height="168.064" fill="#fff"/></clipPath></defs><g transform="translate(0 190.052) rotate(-52)"><g clip-path="url(#a)"><path d="M6.125,188.6a211.233,211.233,0,0,0,56.862-3.869,213.9,213.9,0,0,0,53.444-18.612,207.61,207.61,0,0,0,44.97-30.78,214.465,214.465,0,0,0,34.345-39.484,211.575,211.575,0,0,0,23.709-46.666q1.072-2.962,2.05-5.957a6.169,6.169,0,0,0-4.274-7.529,6.26,6.26,0,0,0-7.529,4.275q-1.7,5.2-3.68,10.3c-.64,1.648-1.306,3.286-1.985,4.919-.38.914.208-.49.231-.546-.082.2-.173.407-.26.61q-.261.61-.526,1.217-.53,1.215-1.076,2.424a205.657,205.657,0,0,1-9.974,19.277,208.368,208.368,0,0,1-11.842,18Q179.8,97.25,179,98.309q-.4.529-.8,1.056l-.4.526c-.436.57.988-1.266.247-.321-1.092,1.392-2.191,2.777-3.312,4.145q-3.47,4.231-7.158,8.275a206.315,206.315,0,0,1-15.324,15.138q-4.025,3.58-8.236,6.944c-.691.552-1.387,1.1-2.083,1.641-.6.468,1.055-.811.452-.348l-.394.3q-.659.5-1.32,1-2.119,1.595-4.28,3.133a200.151,200.151,0,0,1-19.6,12.3q-5.133,2.824-10.423,5.349-2.6,1.243-5.24,2.412c-.879.39-1.762.77-2.645,1.151-.937.4.38-.158.466-.2-.221.095-.443.186-.665.279q-.749.312-1.5.618a208.561,208.561,0,0,1-45.21,12.7q-2.848.462-5.708.845l1.628-.219a204.816,204.816,0,0,1-41.37,1.313c-3.2-.225-6.261,2.976-6.12,6.12a6.268,6.268,0,0,0,6.12,6.12" transform="translate(0 -21.033)" fill="#fff"/><path d="M418.053,34.873q10.962-3.5,21.658-7.765,11.333-4.525,22.341-9.819,5.87-2.839,11.622-5.913l-8.99-3.657,5.75,34.91c.533,3.234,1.151,6.467,1.595,9.715q-.109-.813-.218-1.627a3.878,3.878,0,0,1,.012.87q.11-.813.219-1.627a2.282,2.282,0,0,1-.107.4l.617-1.462a1.19,1.19,0,0,1-.132.231l.957-1.239a1.049,1.049,0,0,1-.189.2l1.239-.957a1.065,1.065,0,0,1-.261.152l1.462-.617a1.253,1.253,0,0,1-.288.078l1.627-.219a2.76,2.76,0,0,1-.622-.012l1.627.219a45.787,45.787,0,0,1-4.626-1.254q-2.38-.673-4.753-1.37-4.651-1.365-9.275-2.819-9.247-2.907-18.379-6.166-5.217-1.861-10.393-3.836a4.635,4.635,0,0,0-2.441-.109,4.554,4.554,0,0,0-2.275.726,6.12,6.12,0,0,0-2.2,8.374l.957,1.239a6.116,6.116,0,0,0,2.7,1.574Q445.5,50.029,464.2,55.57q4.743,1.4,9.511,2.715a10.1,10.1,0,0,0,3.255.474,7.459,7.459,0,0,0,3.637-1.065,7.275,7.275,0,0,0,3.134-4.085c.766-2.355.046-4.854-.343-7.212q-1.619-9.831-3.238-19.662Q478.32,15.6,476.487,4.465a6.113,6.113,0,0,0-1.574-2.7A4.59,4.59,0,0,0,472.943.5,6.111,6.111,0,0,0,467.5.807q-10.15,5.421-20.666,10.115-2.977,1.328-5.981,2.6l1.462-.617q-10.514,4.434-21.32,8.125-3.086,1.053-6.192,2.043a6.44,6.44,0,0,0-3.658,2.812,6.122,6.122,0,0,0,6.912,8.99" transform="translate(-242.896 0)" fill="#fff"/></g></g></svg>