<svg xmlns="http://www.w3.org/2000/svg" width="20" height="14.286" viewBox="0 0 20 14.286"><path d="M106.953,157.331c-.015-.02-.031-.04-.045-.061s-.025-.041-.038-.062-.023-.038-.034-.058-.021-.043-.031-.065-.02-.041-.029-.062-.016-.043-.023-.064-.017-.045-.024-.068-.011-.043-.017-.065-.013-.047-.017-.071-.008-.05-.011-.075-.007-.042-.009-.063a1.436,1.436,0,0,1,0-.282c0-.021.006-.042.009-.063s.006-.05.011-.075.011-.047.017-.071.01-.043.017-.065.016-.046.024-.068.015-.043.023-.064.019-.041.029-.062.02-.044.031-.065.023-.038.034-.058.024-.042.038-.062.03-.041.045-.061.025-.034.038-.051c.03-.036.061-.071.094-.1h0l5.714-5.714a1.429,1.429,0,1,1,2.02,2.02l-3.276,3.276h13.694a1.429,1.429,0,1,1,0,2.857H111.544l3.276,3.276a1.429,1.429,0,1,1-2.02,2.02l-5.714-5.714h0q-.05-.05-.094-.1C106.977,157.366,106.965,157.348,106.953,157.331Z" transform="translate(-106.667 -149.334)" fill="#00fafa"/></svg>