<svg xmlns="http://www.w3.org/2000/svg" width="1191" height="540.75" viewBox="0 0 1191 540.75"><g transform="translate(-3766 -2648)"><path d="M-1137.24-152.62c-1.56-3.12-2.6-3.38-5.72-3.38h-43.42a1.846,1.846,0,0,0-2.08,1.82c0,.78.52,2.08,1.56,4.42L-1118.52,0h38.48l68.38-149.76c1.04-2.34,1.56-3.64,1.56-4.42a1.846,1.846,0,0,0-2.08-1.82h-43.42c-3.12,0-4.16.26-5.72,3.38l-27.82,61.1c-4.68,10.66-9.36,26.26-9.36,26.26h-1.56s-4.42-15.34-9.36-26.26ZM-896.48-3.38c1.3,2.86,2.34,3.38,5.46,3.38h43.68a1.846,1.846,0,0,0,2.08-1.82,8.771,8.771,0,0,0-1.04-3.12L-916.24-156h-43.68L-1029.86-4.94a10.78,10.78,0,0,0-1.04,3.12A1.846,1.846,0,0,0-1028.82,0h43.68c3.12,0,4.16-.52,5.46-3.38l7.54-17.42h68.12ZM-949-73.58c4.16-9.62,10.14-29.64,10.14-29.64h1.56s5.98,20.02,10.14,29.64l7.02,15.86h-35.88ZM-699.14,0h35.1a3.355,3.355,0,0,0,3.12-3.12V-152.88a3.355,3.355,0,0,0-3.12-3.12H-704.6a3.355,3.355,0,0,0-3.12,3.12v80.6h-.78A209.846,209.846,0,0,0-722.8-88.4L-789.62-156h-35.1a3.355,3.355,0,0,0-3.12,3.12V-3.12A3.355,3.355,0,0,0-824.72,0h40.56a3.355,3.355,0,0,0,3.12-3.12V-83.98H-780s8.32,10.4,15.6,17.68Zm235.56-91.52h-95.94a4.417,4.417,0,0,0-3.64,3.64v28.6a4.417,4.417,0,0,0,3.64,3.64h48.36v.26c-1.82,7.28-11.18,18.46-36.4,18.46-25.48,0-43.94-16.64-43.94-41.08a41.114,41.114,0,0,1,41.6-41.08c16.9,0,28.6,7.02,34.58,16.64a5.648,5.648,0,0,0,5.46,2.86h36.4c3.38,0,4.68-1.56,4.68-3.38,0-22.88-29.38-55.64-81.12-55.64-50.96,0-88.4,34.58-88.4,80.6,0,43.94,35.1,80.6,90.74,80.6,52,0,83.98-34.84,83.98-75.4Zm145.86,31.2a4.417,4.417,0,0,0,3.64-3.64V-93.6a4.417,4.417,0,0,0-3.64-3.64h-76.44v-19.24h84.24a4.417,4.417,0,0,0,3.64-3.64v-32.24a4.417,4.417,0,0,0-3.64-3.64H-437.84a3.355,3.355,0,0,0-3.12,3.12V-3.12A3.355,3.355,0,0,0-437.84,0h128.96a4.417,4.417,0,0,0,3.64-3.64V-35.88a4.417,4.417,0,0,0-3.64-3.64h-85.28v-20.8Zm158.34,0a4.417,4.417,0,0,0,3.64-3.64V-93.6a4.417,4.417,0,0,0-3.64-3.64h-76.44v-19.24h84.24a4.417,4.417,0,0,0,3.64-3.64v-32.24a4.417,4.417,0,0,0-3.64-3.64H-279.5a3.355,3.355,0,0,0-3.12,3.12V-3.12A3.355,3.355,0,0,0-279.5,0h128.96a4.417,4.417,0,0,0,3.64-3.64V-35.88a4.417,4.417,0,0,0-3.64-3.64h-85.28v-20.8Zm81.9-92.56A3.355,3.355,0,0,0-80.6-156h-40.56a3.355,3.355,0,0,0-3.12,3.12V-3.12A3.355,3.355,0,0,0-121.16,0H-8.84A4.417,4.417,0,0,0-5.2-3.64V-35.88a4.417,4.417,0,0,0-3.64-3.64H-77.48Z" transform="translate(4957 2998)" fill="#00fafa"/><rect width="370" height="159" rx="10" transform="translate(3766 2648)" fill="#fff"/><rect width="623" height="159" rx="10" transform="translate(4334 3028)" fill="#fff"/><path d="M10,1a9.01,9.01,0,0,0-9,9V149a9.01,9.01,0,0,0,9,9H613a9.01,9.01,0,0,0,9-9V10a9.01,9.01,0,0,0-9-9H10m0-1H613a10,10,0,0,1,10,10V149a10,10,0,0,1-10,10H10A10,10,0,0,1,0,149V10A10,10,0,0,1,10,0Z" transform="translate(4334 3028)" fill="#fff"/><path d="M14.56-52.52a6.327,6.327,0,0,0-6.24,6.24v2.08c0,25.74,27.56,46.8,75.14,46.8,52,0,76.18-26,76.18-53.82,0-22.88-14.3-40.82-53.3-44.46L68.12-99.32c-10.4-1.04-13.52-4.42-13.52-8.84,0-7.02,9.36-13,26.26-13,13.78,0,21.06,5.2,23.66,10.66a5.287,5.287,0,0,0,5.46,3.38h35.36a5.884,5.884,0,0,0,5.98-5.98c0-23.14-22.1-45.5-70.46-45.5-46.54,0-73.06,24.44-73.06,54.86,0,24.96,18.72,39,50.44,41.86l38.74,3.64c12.22,1.3,15.86,5.72,15.86,9.88,0,7.54-7.8,13.52-29.38,13.52C67.08-34.84,59.28-39,55.12-48.1c-1.3-2.86-3.12-4.42-6.5-4.42Zm290.94-7.8a4.417,4.417,0,0,0,3.64-3.64V-93.6a4.417,4.417,0,0,0-3.64-3.64H229.06v-19.24H313.3a4.417,4.417,0,0,0,3.64-3.64v-32.24A4.417,4.417,0,0,0,313.3-156H185.38a3.355,3.355,0,0,0-3.12,3.12V-3.12A3.355,3.355,0,0,0,185.38,0H314.34a4.417,4.417,0,0,0,3.64-3.64V-35.88a4.417,4.417,0,0,0-3.64-3.64H229.06v-20.8ZM384.28,0a3.355,3.355,0,0,0,3.12-3.12V-36.66h24.96c37.44,0,66.04-22.1,66.04-59.02,0-36.14-27.3-60.32-66.04-60.32H343.72a3.355,3.355,0,0,0-3.12,3.12V-3.12A3.355,3.355,0,0,0,343.72,0Zm23.4-116.48c14.82,0,23.66,8.84,23.66,21.58s-9.1,21.32-23.66,21.32H387.4v-42.9ZM542.88,0A3.355,3.355,0,0,0,546-3.12V-36.66h24.96c37.44,0,66.04-22.1,66.04-59.02,0-36.14-27.3-60.32-66.04-60.32H502.32a3.355,3.355,0,0,0-3.12,3.12V-3.12A3.355,3.355,0,0,0,502.32,0Zm23.4-116.48c14.82,0,23.66,8.84,23.66,21.58s-9.1,21.32-23.66,21.32H546v-42.9ZM781.04-60.32a4.417,4.417,0,0,0,3.64-3.64V-93.6a4.417,4.417,0,0,0-3.64-3.64H704.6v-19.24h84.24a4.417,4.417,0,0,0,3.64-3.64v-32.24a4.417,4.417,0,0,0-3.64-3.64H660.92a3.355,3.355,0,0,0-3.12,3.12V-3.12A3.355,3.355,0,0,0,660.92,0H789.88a4.417,4.417,0,0,0,3.64-3.64V-35.88a4.417,4.417,0,0,0-3.64-3.64H704.6v-20.8Z" transform="translate(4156 2808)" fill="#fff"/><path d="M-255,0c16.275,0,25.125-9,25.125-22.5,0-13.725-10.5-22.5-25.275-22.5h-19.5a.968.968,0,0,0-.9.9V-.9a.968.968,0,0,0,.9.9Zm-.15-33.6c6.975,0,11.775,4.05,11.775,11.1,0,6.825-3.825,11.1-11.7,11.1h-6.975V-33.6Zm67.35,16.2a1.274,1.274,0,0,0,1.05-1.05V-27a1.274,1.274,0,0,0-1.05-1.05h-22.05V-33.6h24.3a1.274,1.274,0,0,0,1.05-1.05v-9.3A1.274,1.274,0,0,0-185.55-45h-36.9a.968.968,0,0,0-.9.9V-.9a.968.968,0,0,0,.9.9h37.2a1.274,1.274,0,0,0,1.05-1.05v-9.3a1.274,1.274,0,0,0-1.05-1.05h-24.6v-6Zm10.05,2.25a1.825,1.825,0,0,0-1.8,1.8v.6c0,7.425,7.95,13.5,21.675,13.5,15,0,21.975-7.5,21.975-15.525,0-6.6-4.125-11.775-15.375-12.825L-162.3-28.65c-3-.3-3.9-1.275-3.9-2.55,0-2.025,2.7-3.75,7.575-3.75,3.975,0,6.075,1.5,6.825,3.075a1.525,1.525,0,0,0,1.575.975h10.2a1.7,1.7,0,0,0,1.725-1.725c0-6.675-6.375-13.125-20.325-13.125-13.425,0-21.075,7.05-21.075,15.825,0,7.2,5.4,11.25,14.55,12.075l11.175,1.05c3.525.375,4.575,1.65,4.575,2.85,0,2.175-2.25,3.9-8.475,3.9-4.725,0-6.975-1.2-8.175-3.825a1.872,1.872,0,0,0-1.875-1.275Zm61.875-28.95a.968.968,0,0,0-.9-.9h-11.7a.968.968,0,0,0-.9.9V-.9a.968.968,0,0,0,.9.9h11.7a.968.968,0,0,0,.9-.9ZM-58.95-26.4H-86.625a1.274,1.274,0,0,0-1.05,1.05v8.25a1.274,1.274,0,0,0,1.05,1.05h13.95v.075c-.525,2.1-3.225,5.325-10.5,5.325-7.35,0-12.675-4.8-12.675-11.85a11.86,11.86,0,0,1,12-11.85c4.875,0,8.25,2.025,9.975,4.8a1.629,1.629,0,0,0,1.575.825h10.5c.975,0,1.35-.45,1.35-.975,0-6.6-8.475-16.05-23.4-16.05-14.7,0-25.5,9.975-25.5,23.25C-109.35-9.825-99.225.75-83.175.75-68.175.75-58.95-9.3-58.95-21ZM-15.3,0H-5.175a.968.968,0,0,0,.9-.9V-44.1a.968.968,0,0,0-.9-.9h-11.7a.968.968,0,0,0-.9.9v23.25H-18a60.534,60.534,0,0,0-4.125-4.65L-41.4-45H-51.525a.968.968,0,0,0-.9.9V-.9a.968.968,0,0,0,.9.9h11.7a.968.968,0,0,0,.9-.9V-24.225h.3s2.4,3,4.5,5.1Z" transform="translate(4314 3070)" fill="#fff"/><path d="M-523.275,0C-507,0-498.15-9-498.15-22.5c0-13.725-10.5-22.5-25.275-22.5h-19.5a.968.968,0,0,0-.9.9V-.9a.968.968,0,0,0,.9.9Zm-.15-33.6c6.975,0,11.775,4.05,11.775,11.1,0,6.825-3.825,11.1-11.7,11.1h-6.975V-33.6Zm67.35,16.2a1.274,1.274,0,0,0,1.05-1.05V-27a1.274,1.274,0,0,0-1.05-1.05h-22.05V-33.6h24.3a1.274,1.274,0,0,0,1.05-1.05v-9.3a1.274,1.274,0,0,0-1.05-1.05h-36.9a.968.968,0,0,0-.9.9V-.9a.968.968,0,0,0,.9.9h37.2a1.274,1.274,0,0,0,1.05-1.05v-9.3a1.274,1.274,0,0,0-1.05-1.05h-24.6v-6ZM-434.7-44.025c-.45-.9-.75-.975-1.65-.975h-12.525a.533.533,0,0,0-.6.525,4.22,4.22,0,0,0,.45,1.275L-429.3,0h11.1l19.725-43.2a4.22,4.22,0,0,0,.45-1.275.533.533,0,0,0-.6-.525H-411.15c-.9,0-1.2.075-1.65.975L-420.825-26.4c-1.35,3.075-2.7,7.575-2.7,7.575h-.45a67.966,67.966,0,0,0-2.7-7.575ZM-357.45-17.4a1.274,1.274,0,0,0,1.05-1.05V-27a1.274,1.274,0,0,0-1.05-1.05H-379.5V-33.6h24.3a1.274,1.274,0,0,0,1.05-1.05v-9.3A1.274,1.274,0,0,0-355.2-45h-36.9a.968.968,0,0,0-.9.9V-.9a.968.968,0,0,0,.9.9h37.2a1.274,1.274,0,0,0,1.05-1.05v-9.3a1.274,1.274,0,0,0-1.05-1.05h-24.6v-6Zm23.625-26.7a.968.968,0,0,0-.9-.9h-11.7a.968.968,0,0,0-.9.9V-.9a.968.968,0,0,0,.9.9h32.4a1.274,1.274,0,0,0,1.05-1.05v-9.3a1.274,1.274,0,0,0-1.05-1.05h-19.8Zm47.625-1.65c-13.65,0-25.275,8.7-25.275,23.25S-299.85.75-286.2.75s25.275-8.7,25.275-23.25S-272.55-45.75-286.2-45.75Zm0,11.4A11.486,11.486,0,0,1-274.425-22.5,11.442,11.442,0,0,1-286.2-10.65,11.442,11.442,0,0,1-297.975-22.5,11.486,11.486,0,0,1-286.2-34.35ZM-241.8,0a.968.968,0,0,0,.9-.9v-9.675h7.2c10.8,0,19.05-6.375,19.05-17.025,0-10.425-7.875-17.4-19.05-17.4h-19.8a.968.968,0,0,0-.9.9V-.9a.968.968,0,0,0,.9.9Zm6.75-33.6c4.275,0,6.825,2.55,6.825,6.225s-2.625,6.15-6.825,6.15h-5.85V-33.6Zm70.2-11.4a1.714,1.714,0,0,0-1.425.75L-181.2-23.775h-.15L-196.275-44.25A1.714,1.714,0,0,0-197.7-45h-10.05a.968.968,0,0,0-.9.9V-.9a.968.968,0,0,0,.9.9h11.7a.968.968,0,0,0,.9-.9V-23.7h.225a33.255,33.255,0,0,0,2.775,4.575L-181.275-4.2l10.95-14.925A33.255,33.255,0,0,0-167.55-23.7h.15V-.9a.968.968,0,0,0,.9.9h11.7a.968.968,0,0,0,.9-.9V-44.1a.968.968,0,0,0-.9-.9Zm55.05,27.6a1.274,1.274,0,0,0,1.05-1.05V-27a1.274,1.274,0,0,0-1.05-1.05h-22.05V-33.6h24.3a1.274,1.274,0,0,0,1.05-1.05v-9.3A1.274,1.274,0,0,0-107.55-45h-36.9a.968.968,0,0,0-.9.9V-.9a.968.968,0,0,0,.9.9h37.2a1.274,1.274,0,0,0,1.05-1.05v-9.3a1.274,1.274,0,0,0-1.05-1.05h-24.6v-6ZM-62.55,0h10.125a.968.968,0,0,0,.9-.9V-44.1a.968.968,0,0,0-.9-.9h-11.7a.968.968,0,0,0-.9.9v23.25h-.225a60.533,60.533,0,0,0-4.125-4.65L-88.65-45H-98.775a.968.968,0,0,0-.9.9V-.9a.968.968,0,0,0,.9.9h11.7a.968.968,0,0,0,.9-.9V-24.225h.3s2.4,3,4.5,5.1Zm32.175-33.6V-.9a.968.968,0,0,0,.9.9h11.7a.968.968,0,0,0,.9-.9V-33.6h14.85a1.274,1.274,0,0,0,1.05-1.05v-9.3A1.274,1.274,0,0,0-2.025-45h-43.2a1.274,1.274,0,0,0-1.05,1.05v9.3a1.274,1.274,0,0,0,1.05,1.05Z" transform="translate(4314 3130)" fill="#00fafa"/><path d="M-255.975-17.4a1.274,1.274,0,0,0,1.05-1.05V-27a1.274,1.274,0,0,0-1.05-1.05h-22.05V-33.6h24.3a1.274,1.274,0,0,0,1.05-1.05v-9.3a1.274,1.274,0,0,0-1.05-1.05h-36.9a.968.968,0,0,0-.9.9V-.9a.968.968,0,0,0,.9.9h37.2a1.274,1.274,0,0,0,1.05-1.05v-9.3a1.274,1.274,0,0,0-1.05-1.05h-24.6v-6ZM-234.6-44.025c-.45-.9-.75-.975-1.65-.975h-12.525a.533.533,0,0,0-.6.525,4.22,4.22,0,0,0,.45,1.275L-229.2,0h11.1l19.725-43.2a4.22,4.22,0,0,0,.45-1.275.533.533,0,0,0-.6-.525H-211.05c-.9,0-1.2.075-1.65.975L-220.725-26.4c-1.35,3.075-2.7,7.575-2.7,7.575h-.45a67.968,67.968,0,0,0-2.7-7.575ZM-157.35-17.4a1.274,1.274,0,0,0,1.05-1.05V-27a1.274,1.274,0,0,0-1.05-1.05H-179.4V-33.6h24.3a1.274,1.274,0,0,0,1.05-1.05v-9.3A1.274,1.274,0,0,0-155.1-45H-192a.968.968,0,0,0-.9.9V-.9a.968.968,0,0,0,.9.9h37.2a1.274,1.274,0,0,0,1.05-1.05v-9.3a1.274,1.274,0,0,0-1.05-1.05h-24.6v-6ZM-110.1,0h10.125a.968.968,0,0,0,.9-.9V-44.1a.968.968,0,0,0-.9-.9h-11.7a.968.968,0,0,0-.9.9v23.25h-.225a60.533,60.533,0,0,0-4.125-4.65L-136.2-45h-10.125a.968.968,0,0,0-.9.9V-.9a.968.968,0,0,0,.9.9h11.7a.968.968,0,0,0,.9-.9V-24.225h.3s2.4,3,4.5,5.1Zm32.175-33.6V-.9a.968.968,0,0,0,.9.9h11.7a.968.968,0,0,0,.9-.9V-33.6h14.85a1.274,1.274,0,0,0,1.05-1.05v-9.3A1.274,1.274,0,0,0-49.575-45h-43.2a1.274,1.274,0,0,0-1.05,1.05v9.3a1.274,1.274,0,0,0,1.05,1.05ZM-44.1-15.15a1.825,1.825,0,0,0-1.8,1.8v.6c0,7.425,7.95,13.5,21.675,13.5,15,0,21.975-7.5,21.975-15.525,0-6.6-4.125-11.775-15.375-12.825L-28.65-28.65c-3-.3-3.9-1.275-3.9-2.55,0-2.025,2.7-3.75,7.575-3.75,3.975,0,6.075,1.5,6.825,3.075a1.525,1.525,0,0,0,1.575.975h10.2A1.7,1.7,0,0,0-4.65-32.625c0-6.675-6.375-13.125-20.325-13.125C-38.4-45.75-46.05-38.7-46.05-29.925c0,7.2,5.4,11.25,14.55,12.075l11.175,1.05c3.525.375,4.575,1.65,4.575,2.85,0,2.175-2.25,3.9-8.475,3.9-4.725,0-6.975-1.2-8.175-3.825a1.872,1.872,0,0,0-1.875-1.275Z" transform="translate(4314 3188)" fill="#fff"/></g></svg>